<svg width="126" height="52" viewBox="0 0 126 52" fill="none" xmlns="http://www.w3.org/2000/svg">
<path d="M25.2 29.32V21.48L26.88 19.8H31.552L33.168 21.416V22.264H32.24V21.704L31.152 20.632H27.296L26.128 21.784V29L27.296 30.168H31.152L32.24 29.096V28.536H33.168V29.384L31.552 31H26.88L25.2 29.32ZM35.0888 29.608V24.424L36.4808 23.032H40.4488L41.8408 24.424V29.608L40.4488 31H36.4808L35.0888 29.608ZM40.0648 30.184L40.9448 29.32V24.696L40.0648 23.832H36.8648L35.9848 24.696V29.32L36.8648 30.184H40.0648ZM44.2331 23.032H45.1131V24.888L46.9691 23.032H49.3211L50.7131 24.424V31H49.8171V24.712L48.9371 23.848H47.2411L45.1291 25.944V31H44.2331V23.032ZM53.75 29.608V23.816H52.31V23.032H53.782V20.44H54.646V23.032H57.142V23.832H54.646V29.32L55.526 30.2H57.142V31H55.142L53.75 29.608ZM58.8994 29.768V27.672L60.1314 26.472H64.4514V24.696L63.5714 23.816H60.7554L59.8594 24.696V25.416H58.9634V24.424L60.3554 23.032H63.9554L65.3474 24.424V31H64.4674V29.448L62.8674 31H60.1314L58.8994 29.768ZM62.6594 30.2L64.4514 28.44V27.272H60.4994L59.7954 27.944V29.512L60.4994 30.2H62.6594ZM67.6669 29.608V24.424L69.0589 23.032H72.7709L74.1629 24.424V25.24H73.2669V24.696L72.3869 23.832H69.4429L68.5629 24.712V29.32L69.4429 30.184H72.3869L73.2669 29.32V28.792H74.1629V29.608L72.7709 31H69.0589L67.6669 29.608ZM76.9688 29.608V23.816H75.5288V23.032H77.0008V20.44H77.8648V23.032H80.3608V23.832H77.8648V29.32L78.7448 30.2H80.3608V31H78.3608L76.9688 29.608ZM86.0594 29.608V23.032H86.9554V29.32L87.8354 30.184H89.5154L91.6274 28.072V23.032H92.5234V31H91.6434V29.144L89.7874 31H87.4514L86.0594 29.608ZM94.6769 29.768V28.776H95.5729V29.496L96.2929 30.2H99.3649L100.085 29.496V28.088L99.3649 27.368H95.9249L94.7409 26.184V24.264L95.9889 23.032H99.5889L100.821 24.264V25.256H99.9249V24.536L99.2049 23.816H96.3729L95.6369 24.536V25.88L96.3729 26.6H99.7329L100.981 27.848V29.752L99.7329 31H95.9089L94.6769 29.768Z" fill="white"/>
<rect x="0.5" y="0.5" width="125" height="51" stroke="url(#paint0_linear_7_1908)"/>
<defs>
<linearGradient id="paint0_linear_7_1908" x1="0" y1="26" x2="126" y2="26" gradientUnits="userSpaceOnUse">
<stop stop-color="#0CBAF1"/>
<stop offset="1" stop-color="#E95CE9"/>
</linearGradient>
</defs>
</svg>
